<svg width="422" height="339" viewBox="0 0 422 339" fill="none" xmlns="http://www.w3.org/2000/svg">
<g filter="url(#filter0_d_0_1)">
<path d="M281.874 88.0603L290.594 88C204.296 148.934 254.902 159.884 291.216 177.998L282.496 178.058C220.687 163.84 200 151.121 281.874 88.0603Z" fill="#D4AF37"/>
<path d="M284.941 180.007C288.667 183.342 290.157 184.676 294.628 188.678C299.098 192.679 188.61 235.424 207.924 285.541L198.237 276.87C172.37 208.943 281.216 176.673 284.941 180.007Z" fill="#D4AF37"/>
<path d="M273.58 198.214C275.653 198.719 277.917 198.853 280.211 198.608C282.506 198.363 284.775 197.745 286.858 196.796C288.94 195.847 290.786 194.592 292.264 193.119C293.741 191.646 294.815 189.991 295.408 188.271C296.001 186.552 296.1 184.81 295.697 183.17C295.294 181.529 294.399 180.029 293.076 178.777C291.752 177.524 290.033 176.55 288.04 175.923C286.046 175.295 283.827 175.03 281.54 175.146L280.741 182.677C281.565 182.635 282.365 182.731 283.084 182.957C283.803 183.183 284.423 183.534 284.9 183.986C285.377 184.438 285.7 184.978 285.845 185.57C285.991 186.162 285.955 186.79 285.741 187.41C285.527 188.03 285.14 188.626 284.607 189.157C284.075 189.689 283.409 190.141 282.658 190.483C281.907 190.825 281.089 191.049 280.262 191.137C279.434 191.225 278.618 191.177 277.87 190.995L273.58 198.214Z" fill="#D4AF37"/>
<mask id="path-4-inside-1_0_1" fill="white">
<path d="M278.305 175.323C277.896 177.536 278.092 179.818 278.871 181.928L290.597 177.597L278.305 175.323Z"/>
</mask>
<path d="M278.305 175.323C277.896 177.536 278.092 179.818 278.871 181.928L290.597 177.597L278.305 175.323Z" fill="#D4AF37" stroke="#D4AF37" stroke-width="2" mask="url(#path-4-inside-1_0_1)"/>
</g>
<path d="M160 65H165C222.168 99.7132 224.78 120.203 165 159H160C194.642 124.68 194.333 104.079 160 65Z" fill="#E6E6E6"/>
<path d="M160 159.193L169.062 159.169C254.167 169.012 251.626 183.403 169.241 225.867L160.179 225.892C192.37 199.472 228.647 182.933 160 159.193Z" fill="#E6E6E6"/>
<path d="M149.891 65.1138C176.216 164.965 98.7022 171.31 148.522 275.904" stroke="#1A1A1A" stroke-width="9" stroke-linecap="round"/>
<defs>
<filter id="filter0_d_0_1" x="190.267" y="88" width="109.673" height="205.541" filterUnits="userSpaceOnUse" color-interpolation-filters="sRGB">
<feFlood flood-opacity="0" result="BackgroundImageFix"/>
<feColorMatrix in="SourceAlpha" type="matrix" values="0 0 0 0 0 0 0 0 0 0 0 0 0 0 0 0 0 0 127 0" result="hardAlpha"/>
<feOffset dy="4"/>
<feGaussianBlur stdDeviation="2"/>
<feComposite in2="hardAlpha" operator="out"/>
<feColorMatrix type="matrix" values="0 0 0 0 0 0 0 0 0 0 0 0 0 0 0 0 0 0 0.25 0"/>
<feBlend mode="normal" in2="BackgroundImageFix" result="effect1_dropShadow_0_1"/>
<feBlend mode="normal" in="SourceGraphic" in2="effect1_dropShadow_0_1" result="shape"/>
</filter>
</defs>
</svg>
